<?xml version="1.0" encoding="utf-8"?>
<!-- Generator: Adobe Illustrator 25.0.1, SVG Export Plug-In . SVG Version: 6.00 Build 0)  -->
<svg version="1.1" id="Layer_1" xmlns="http://www.w3.org/2000/svg" xmlns:xlink="http://www.w3.org/1999/xlink" x="0px" y="0px"
	 viewBox="0 0 180 26" style="enable-background:new 0 0 180 26;" xml:space="preserve">
<style type="text/css">
	.st0{fill:#002337;}
</style>
<g>
	<path class="st0" d="M177,22.5v-3.1h-7.8v-4.8h5.7v-3.1h-5.7V6.7h6.8V3.6h-10.6v18.9C165.5,22.5,177,22.5,177,22.5z M157,20.9v-8.4
		h-7.3v2.9h3.8v3.6c-0.8,0.5-1.9,0.8-3.3,0.8c-3.6,0-6.9-2.4-6.9-6.6c0-4.4,3.4-6.7,7-6.7c1.9,0,3.8,0.6,5,1.4l0.7-3.2
		c-1.3-0.9-3.5-1.5-6.1-1.5c-4.9,0-10.3,3.4-10.3,9.9c0,6.4,5.3,9.8,10.4,9.8C153,22.9,155.3,22.2,157,20.9 M128.2,9.2
		c0,1.7-1.4,2.5-2.8,2.5h-2.1v-5h2.1C126.8,6.7,128.2,7.5,128.2,9.2 M135,22.5l-6.3-8.6c1.7-0.7,3.1-2.4,3.1-4.8
		c0-3.6-2.9-5.5-5.9-5.5h-6.3v18.9h3.6v-7.9h1.7l5.5,7.9C130.5,22.5,135,22.5,135,22.5z M112.5,22.5v-3.1h-7.8v-4.8h5.7v-3.1h-5.7
		V6.7h6.8V3.6H101v18.9C101,22.5,112.5,22.5,112.5,22.5z M93.9,3.6h-3.6l-3.2,8.7c-0.5,1.3-1,2.8-1.4,4.3h-0.1
		c-0.4-1.5-0.9-3.1-1.4-4.3L81,3.6h-3.9l7.2,19.1h2.3L93.9,3.6z M70.1,22.8V3.6h-3.6v8c0,1.3,0,2.7,0.1,4l-0.1,0
		c-1-1.3-2.5-3-3.6-4.1l-7.3-8h-2.9v18.9h3.6v-8.8c0-1.3,0-2.8-0.1-4.4l0.1,0c1.2,1.4,2.6,3.1,4,4.6l8.2,8.9L70.1,22.8L70.1,22.8z
		 M41,13c0,4.1-3.2,6.6-6.3,6.6c-3.2,0-6.3-2.5-6.3-6.6c0-4.1,3.1-6.6,6.3-6.6C37.9,6.5,41,9,41,13 M44.8,13c0-6.1-5-9.8-10.1-9.8
		c-5.1,0-10.1,3.8-10.1,9.8c0,6.1,5,9.9,10.1,9.9C39.9,22.9,44.8,19.1,44.8,13 M18.5,4.5c-1.2-0.7-3-1.2-5.4-1.2C8.3,3.3,3,6.6,3,13
		c0,6.4,5.3,9.7,10.1,9.7c2.2,0,3.5-0.3,4.6-0.8l0.3-3.3c-1.1,0.6-2.5,0.9-4.4,0.9c-3.6,0-6.8-2.3-6.8-6.5c0-4.1,3.2-6.5,6.7-6.5
		c1.8,0,3.4,0.6,4.3,1.1L18.5,4.5z"/>
</g>
</svg>
